<svg width="16" height="13" viewBox="0 0 16 13" fill="none" xmlns="http://www.w3.org/2000/svg">
<path d="M8.57732 0.500052L14.928 11.5001C14.9865 11.6014 15.0173 11.7164 15.0173 11.8334C15.0173 11.9504 14.9865 12.0654 14.928 12.1667C14.8695 12.2681 14.7853 12.3522 14.684 12.4107C14.5826 12.4692 14.4677 12.5 14.3506 12.5001H1.64932C1.53229 12.5 1.41733 12.4692 1.31599 12.4107C1.21464 12.3522 1.13049 12.2681 1.07198 12.1667C1.01347 12.0654 0.982665 11.9504 0.982666 11.8334C0.982667 11.7164 1.01347 11.6014 1.07198 11.5001L7.42265 0.500052C7.48116 0.398714 7.56532 0.314563 7.66666 0.256056C7.76801 0.197549 7.88296 0.166748 7.99998 0.166748C8.117 0.166748 8.23196 0.197549 8.3333 0.256056C8.43464 0.314563 8.5188 0.398714 8.57732 0.500052ZM7.33332 9.16672V10.5001H8.66665V9.16672H7.33332ZM7.33332 4.50005V7.83338H8.66665V4.50005H7.33332Z" fill="#FFAD0D"/>
</svg>
