<svg width="18" height="18" viewBox="0 0 18 18" fill="none" xmlns="http://www.w3.org/2000/svg">
<path d="M8.99984 17.3334C4.39734 17.3334 0.666504 13.6025 0.666504 9.00002C0.666504 4.39752 4.39734 0.666687 8.99984 0.666687C13.6023 0.666687 17.3332 4.39752 17.3332 9.00002C17.3332 13.6025 13.6023 17.3334 8.99984 17.3334ZM8.99984 15.6667C10.7679 15.6667 12.4636 14.9643 13.7139 13.7141C14.9641 12.4638 15.6665 10.7681 15.6665 9.00002C15.6665 7.23191 14.9641 5.53622 13.7139 4.28598C12.4636 3.03573 10.7679 2.33335 8.99984 2.33335C7.23173 2.33335 5.53604 3.03573 4.28579 4.28598C3.03555 5.53622 2.33317 7.23191 2.33317 9.00002C2.33317 10.7681 3.03555 12.4638 4.28579 13.7141C5.53604 14.9643 7.23173 15.6667 8.99984 15.6667ZM5.6665 9.83335H12.3332C12.3332 10.7174 11.982 11.5653 11.3569 12.1904C10.7317 12.8155 9.88389 13.1667 8.99984 13.1667C8.11578 13.1667 7.26794 12.8155 6.64281 12.1904C6.01769 11.5653 5.6665 10.7174 5.6665 9.83335Z" fill="#525C76"/>
</svg>
