<svg width="20" height="20" viewBox="0 0 20 20" fill="none" xmlns="http://www.w3.org/2000/svg">
<path d="M3.75 3.125L16.25 16.875" stroke="#525C76" stroke-width="2" stroke-linecap="round" stroke-linejoin="round"/>
<path d="M12.1012 12.3126C11.5277 12.838 10.7774 13.1281 9.99967 13.1251C9.36894 13.1251 8.75299 12.9341 8.23279 12.5774C7.7126 12.2208 7.31252 11.715 7.08513 11.1267C6.85775 10.5384 6.81372 9.89503 6.95882 9.28121C7.10392 8.6674 7.43136 8.11186 7.8981 7.68762" stroke="#525C76" stroke-width="2" stroke-linecap="round" stroke-linejoin="round"/>
<path d="M5.78125 5.35925C2.59375 6.96863 1.25 9.99988 1.25 9.99988C1.25 9.99988 3.75 15.6249 10 15.6249C11.4645 15.6368 12.9108 15.2994 14.2188 14.6405" stroke="#525C76" stroke-width="2" stroke-linecap="round" stroke-linejoin="round"/>
<path d="M16.2974 13.211C18.0005 11.6875 18.7505 10 18.7505 10C18.7505 10 16.2505 4.37502 10.0005 4.37502C9.45866 4.37395 8.9177 4.41838 8.3833 4.50783" stroke="#525C76" stroke-width="2" stroke-linecap="round" stroke-linejoin="round"/>
<path d="M10.5859 6.92969C11.2505 7.05561 11.8561 7.39427 12.3113 7.89457C12.7665 8.39487 13.0466 9.02965 13.1094 9.70312" stroke="#525C76" stroke-width="2" stroke-linecap="round" stroke-linejoin="round"/>
</svg>
