<svg width="30" height="20" viewBox="0 0 30 20" fill="none" xmlns="http://www.w3.org/2000/svg">
<rect width="30" height="20" rx="3" fill="#E2E4E8"/>
<path d="M10.63 6.82H9.11V11.3C9.11 12.19 8.68 12.79 7.68 12.79C6.67 12.79 6.24 12.19 6.24 11.3V6.82H4.72V11.27C4.72 12.97 5.78 14.15 7.68 14.15C9.55 14.15 10.63 12.97 10.63 11.27V6.82ZM17.5938 11.77C17.5938 10.71 16.9138 10.13 15.6538 9.88L14.4238 9.63C13.9038 9.53 13.4538 9.32 13.4538 8.83C13.4538 8.33 13.8738 7.91 14.6138 7.91C15.3738 7.91 15.8938 8.42 15.9438 9.17H17.4838C17.3838 7.67 16.2038 6.73 14.5938 6.73C13.0438 6.73 11.9138 7.65 11.9138 8.93C11.9138 10.12 12.7538 10.71 13.8438 10.92L15.0238 11.15C15.6338 11.27 15.9838 11.54 15.9838 11.99C15.9838 12.57 15.4338 12.91 14.6638 12.91C13.7338 12.91 13.2238 12.4 13.1838 11.61H11.6438C11.7538 13.13 12.8838 14.1 14.6938 14.1C16.4938 14.1 17.5938 13.14 17.5938 11.77ZM21.2646 14C23.4946 14 24.9246 12.46 24.9246 10.37C24.9246 8.28 23.5446 6.82 21.2646 6.82H18.7146V14H21.2646ZM20.2346 8.13H21.1846C22.6146 8.13 23.3646 8.94 23.3646 10.37C23.3646 11.86 22.6146 12.69 21.1846 12.69H20.2346V8.13Z" fill="#0F1D40"/>
</svg>
