<svg width="20" height="20" viewBox="0 0 20 20" fill="none" xmlns="http://www.w3.org/2000/svg">
<path d="M10 17.5C14.1421 17.5 17.5 14.1421 17.5 10C17.5 5.85786 14.1421 2.5 10 2.5C5.85786 2.5 2.5 5.85786 2.5 10C2.5 14.1421 5.85786 17.5 10 17.5Z" stroke="#747C90" stroke-width="2" stroke-linecap="round" stroke-linejoin="round"/>
<path d="M10 12.5C11.7259 12.5 13.125 11.1009 13.125 9.375C13.125 7.64911 11.7259 6.25 10 6.25C8.27411 6.25 6.875 7.64911 6.875 9.375C6.875 11.1009 8.27411 12.5 10 12.5Z" stroke="#747C90" stroke-width="2" stroke-linecap="round" stroke-linejoin="round"/>
<path d="M4.98486 15.5782C5.45511 14.652 6.17264 13.8741 7.05794 13.3307C7.94324 12.7873 8.96172 12.4996 10.0005 12.4996C11.0393 12.4996 12.0577 12.7873 12.943 13.3307C13.8283 13.8741 14.5459 14.652 15.0161 15.5782" stroke="#747C90" stroke-width="2" stroke-linecap="round" stroke-linejoin="round"/>
</svg>
